<?xml version="1.0" encoding="UTF-8"?>
<svg id="_レイヤー_1" data-name="レイヤー_1" xmlns="http://www.w3.org/2000/svg" version="1.1" viewBox="0 0 3044 2012">
  <!-- Generator: Adobe Illustrator 30.2.1, SVG Export Plug-In . SVG Version: 2.1.1 Build 1)  -->
  <defs>
    <style>
      .st0 {
        fill: #13223d;
      }

      .st0, .st1 {
        fill-rule: evenodd;
      }

      .st1 {
        fill: #1f9993;
      }
    </style>
  </defs>
  <path class="st0" d="M786.08,1174.68c-5.4-8.24-6-47.72-5.12-328.88l1.04-319.56,9.76-4.88c16.64-8.28.24-22.64,230.24,200.88,72.6,70.52,164.4,159.36,204,197.36,39.6,38.04,73.28,72.56,74.88,76.76,3.16,8.44.04,20.04-6.6,24.56-13.52,9.28-24.64,2.36-74.08-46.08-27.6-27-99.72-96.72-160.2-154.92s-137.08-132.4-170.16-164.88c-33.08-32.48-61.44-59.04-63-59.04s-2.84,123.28-2.84,274v274h160v-356.48l22,19,22,19v175.12c0,169-.28,175.24-7.72,179.2-4.8,2.6-49.64,4.16-117.92,4.16h-110.16l-6.12-9.32Z"/>
  <path class="st0" d="M2018.6,1176.68c-5.92-6.56-6.6-24.72-6.6-177.16v-169.84l19.12-18.84c10.56-10.36,20.44-18.84,22-18.84s2.88,79.2,2.88,176v176h160v-274.48c0-270.4-.12-274.4-7.72-269-8.12,5.76-139,131.36-274.28,263.16-157.32,153.32-164.96,160.32-174.68,160.24-14.36-.08-20.64-6.04-20.64-19.6,0-10.72,7.48-19.48,55.64-65.2,30.64-29.04,87.12-83.48,125.56-120.96,100.88-98.4,110.12-107.36,152.12-147.4,20.92-19.96,64.32-62.04,96.44-93.52,49.84-48.8,60.28-57.24,70.88-57.24,8.16,0,13.8,2.64,16.52,7.72,2.76,5.16,4.16,114.08,4.16,325.4,0,302.64-.36,317.96-7.32,324.28-6.44,5.8-20.56,6.6-117.36,6.6-101.56,0-110.6-.56-116.72-7.32Z"/>
  <path class="st0" d="M2012.04,515.16c-.04-168.8.24-175.04,7.68-179,11.48-6.16,19.36-5.08,28.28,3.84,7.72,7.72,8,13.32,8,156.16v148.2l-21.96,22.8-22,22.84v-174.84Z"/>
  <path class="st0" d="M1002.84,664.88l-18.84-19.16v-150.24c0-140.48.48-150.68,7.32-156.88,9.2-8.32,22.24-8.48,30.4-.32,5.52,5.52,6.28,27.04,6.28,176,0,93.36-1.4,169.72-3.16,169.72s-11.64-8.6-22-19.12Z"/>
  <path class="st0" d="M1328,492.92c-3.28-1.04-32.08-27.36-64-58.48s-98.08-95.68-147.04-143.52l-89.08-86.92h-203.88v133.4c0,124.12-.52,133.8-7.32,140-10.2,9.2-23.08,8.24-30.44-2.28-5.36-7.64-6.24-29.08-6.24-153.4,0-132.6.56-145,7-150.64,5.88-5.16,26.64-6.48,128.16-8.04,105.96-1.64,122.64-1.08,132.88,4.56,6.44,3.52,62.6,55.88,124.84,116.36,62.2,60.48,128.88,125.2,148.12,143.8,26.8,25.96,35,36.4,35,44.56,0,14.44-14.28,24.96-28,20.6Z"/>
  <path class="st0" d="M1693.36,492c-10.6-4.28-15.2-17.08-9.8-27.2,2.24-4.12,45.92-47.84,97.12-97.16,51.24-49.32,119.68-115.28,152.12-146.64l59-57,121.08-.48c66.64-.24,123.8-.16,127.12.24,3.32.36,9.16,4.4,13,8.92,6.4,7.48,7,20.84,7,152.04,0,91.48-1.52,146.64-4.16,151.56-5.72,10.68-29.96,10.68-35.68,0-2.64-4.92-4.16-56.48-4.16-140v-132.28h-204.88l-54.52,53c-30,29.16-82.44,80.16-116.56,113.32-90.56,88.04-131.04,125.72-134.76,125.44-1.8-.16-7.16-1.84-11.92-3.76Z"/>
  <g id="teal">
    <path class="st1" d="M1579.32,1015.84c-7.92-4.6-9.72-12.4-15.64-67.84-2.48-23.12-5.84-54.6-7.52-70-3.8-35.12-22.56-182.6-27.96-220-2.24-15.4-6.12-44.64-8.64-65-2.56-20.36-5.76-37-7.2-37-2.72,0-12.6,56.68-22.68,130-3.32,24.2-7.76,49.52-9.84,56.28-2.12,6.76-3.92,19.36-4,28-.08,8.64-2.56,28.2-5.48,43.4-9.76,50.36-31.36,51.24-57.84,2.32-11.76-21.76-12.12-22-31.92-23.2-17.56-1.04-21.8-3.16-34.32-17-7.84-8.72-14.28-17.88-14.28-20.44s-4.64-10.72-10.36-18.16c-12.52-16.44-14.88-15.04-36.36,20.96-10.52,17.64-18.88,26.88-26.88,29.72-6.36,2.28-38.16,4.12-70.64,4.12h-59.04l-10.48-12.44c-17.36-20.64-11-23.2,61.16-24.48l62.6-1.08,13.04-20c22.16-33.92,36.36-46,54.04-46,22.12,0,28,4.44,47.44,35.92,15.48,25.12,18.68,28.12,30.4,28.56,7.2.28,14.88.96,17.08,1.52s6.64,1.24,9.84,1.52c3.2.24,9.48,4.4,13.96,9.2,4.48,4.76,8.84,7.92,9.72,7,1.72-1.8,2.88-9.08,22.12-141.72,6.68-46.2,14.84-101.12,18.12-122s8-54.2,10.48-74c2.52-19.8,5.92-38.68,7.56-42,1.64-3.32,9.56-6.56,17.6-7.24,12.04-1.04,15.24.36,18.52,8,4.84,11.28,22.04,145.08,51.76,402.76,7.88,68.08,9.64,76.48,14.92,71.2,3.6-3.6,13.08-53.68,13.24-70,.08-7.32,5.56-23.52,12.16-36,6.6-12.48,17.64-36.84,24.52-54.12,14.2-35.52,28.52-48.6,49.08-44.72,17.12,3.2,21.24,8,40.92,47.88,9.84,19.92,20.88,38.48,24.48,41.24,4.68,3.6,28.12,5,83.64,5,71.88,0,77.36.52,81.2,7.68,3.36,6.32,1.92,9.48-8.2,18q-12.24,10.32-89.36,10.32c-92.92,0-96.68-1.44-113.84-44-20-49.6-24.96-52.48-36.08-21.24-3,8.36-11.28,27.96-18.44,43.48-7.4,16.16-14.8,40.96-17.28,58-2.36,16.36-8.04,50.48-12.6,75.76-4.56,25.28-9.84,58.52-11.8,73.88-4.56,36.2-19.8,50.32-40.92,37.96Z"/>
  </g>
</svg>